<svg xmlns="http://www.w3.org/2000/svg" xmlns:xlink="http://www.w3.org/1999/xlink" width="266" height="246.48" viewBox="0 0 266 246.48"><defs><linearGradient id="a" x1="78.84" y1="32.62" x2="193.83" y2="225.01" gradientUnits="userSpaceOnUse"><stop offset="0" stop-color="#f1f3f9"/><stop offset="0.99" stop-color="#c0c8e0"/></linearGradient><linearGradient id="b" x1="17.5" y1="60.24" x2="137.5" y2="60.24" gradientUnits="userSpaceOnUse"><stop offset="0" stop-color="#f1f3f9"/><stop offset="0.99" stop-color="#cacce9"/></linearGradient><linearGradient id="c" x1="143" y1="60.24" x2="254" y2="60.24" xlink:href="#b"/><linearGradient id="d" x1="143" y1="90.74" x2="254" y2="90.74" xlink:href="#b"/><linearGradient id="e" x1="18" y1="90.74" x2="129" y2="90.74" xlink:href="#b"/><linearGradient id="f" x1="17" y1="103.74" x2="93" y2="103.74" xlink:href="#b"/><linearGradient id="g" x1="143" y1="101.74" x2="254" y2="101.74" xlink:href="#b"/><linearGradient id="h" x1="143" y1="112.74" x2="254" y2="112.74" xlink:href="#b"/><linearGradient id="i" x1="143" y1="123.74" x2="254" y2="123.74" xlink:href="#b"/><linearGradient id="j" x1="143" y1="134.74" x2="254" y2="134.74" xlink:href="#b"/><linearGradient id="k" x1="143" y1="145.74" x2="254" y2="145.74" xlink:href="#b"/><linearGradient id="l" x1="143" y1="156.74" x2="254" y2="156.74" xlink:href="#b"/><linearGradient id="m" x1="143" y1="167.74" x2="254" y2="167.74" xlink:href="#b"/><linearGradient id="n" x1="143" y1="178.74" x2="254" y2="178.74" xlink:href="#b"/><linearGradient id="o" x1="143" y1="189.74" x2="254" y2="189.74" xlink:href="#b"/><linearGradient id="p" x1="143" y1="200.74" x2="254" y2="200.74" xlink:href="#b"/><linearGradient id="q" x1="143" y1="211.74" x2="254" y2="211.74" xlink:href="#b"/><linearGradient id="r" x1="143" y1="222.74" x2="254" y2="222.74" xlink:href="#b"/><linearGradient id="s" x1="143" y1="233.74" x2="254" y2="233.74" xlink:href="#b"/></defs><rect width="266" height="246.48" rx="21.93" style="fill:url(#a)"/><rect x="15" y="12.74" width="238" height="19" rx="5.33" style="fill:#d9dce6"/><circle cx="24" cy="21.74" r="4" style="fill:#f8fafb"/><circle cx="36" cy="21.74" r="4" style="fill:#f8fafb"/><circle cx="48" cy="21.74" r="4" style="fill:#f8fafb"/><rect x="18" y="201.74" width="111" height="8" rx="4" style="fill:#d9dce6"/><rect x="17" y="214.74" width="76" height="8" rx="3.31" style="fill:#d9dce6"/><rect x="17.5" y="39.24" width="120" height="42" rx="9.83" style="fill:url(#b)"/><rect x="143" y="37.74" width="111" height="45" rx="9.79" style="fill:url(#c)"/><rect x="143" y="86.74" width="111" height="8" rx="4" style="fill:url(#d)"/><rect x="18" y="86.74" width="111" height="8" rx="4" style="fill:url(#e)"/><rect x="17" y="99.74" width="76" height="8" rx="3.31" style="fill:url(#f)"/><rect x="143" y="97.74" width="111" height="8" rx="4" style="fill:url(#g)"/><rect x="143" y="108.74" width="111" height="8" rx="4" style="fill:url(#h)"/><rect x="143" y="119.74" width="111" height="8" rx="4" style="fill:url(#i)"/><rect x="143" y="130.74" width="111" height="8" rx="4" style="fill:url(#j)"/><rect x="143" y="141.74" width="111" height="8" rx="4" style="fill:url(#k)"/><rect x="143" y="152.74" width="111" height="8" rx="4" style="fill:url(#l)"/><rect x="143" y="163.74" width="111" height="8" rx="4" style="fill:url(#m)"/><rect x="143" y="174.74" width="111" height="8" rx="4" style="fill:url(#n)"/><rect x="143" y="185.74" width="111" height="8" rx="4" style="fill:url(#o)"/><rect x="143" y="196.74" width="111" height="8" rx="4" style="fill:url(#p)"/><rect x="143" y="207.74" width="111" height="8" rx="4" style="fill:url(#q)"/><rect x="143" y="218.74" width="111" height="8" rx="4" style="fill:url(#r)"/><rect x="143" y="229.74" width="111" height="8" rx="4" style="fill:url(#s)"/><line x1="234" y1="17.74" x2="244" y2="27.74" style="fill:none;stroke:#f8fafb;stroke-miterlimit:10"/><line x1="244" y1="17.74" x2="234" y2="27.74" style="fill:none;stroke:#f8fafb;stroke-miterlimit:10"/></svg>