<svg xmlns="http://www.w3.org/2000/svg" width="5146.13" height="2681.11" viewBox="0 0 5146.13 2681.11"><path d="M2189.84,251.34A407.72,407.72,0,0,0,1773.36,78.41l-1443,280.21A407.75,407.75,0,0,0,7.57,836.91l280.2,1443a407.79,407.79,0,0,0,478.3,322.75l1443-280.21a407.78,407.78,0,0,0,322.75-478.29L2251.65,401.15A405.44,405.44,0,0,0,2189.84,251.34ZM2409.15,1868c29.79,153.43-70.43,302-223.87,331.75L742.24,2480c-153.43,29.79-302-70.43-331.76-223.86L130.27,813.08c-29.79-153.43,70.44-302,223.87-331.76L1797.19,201.11c153.43-29.79,302,70.44,331.75,223.87Z" style="fill:#fff"/><polygon points="1597.09 663.3 1256.6 729.41 999 1291.1 903.25 798.02 598.9 857.13 820.48 1998.26 1124.84 1939.16 1022.08 1409.95 1483.8 1869.45 1862.04 1796.01 1279.72 1269.09 1597.09 663.3" style="fill:#fff"/><path d="M5145.05,851.84A407.79,407.79,0,0,0,4869.36,495L3477.59,21.8a407.77,407.77,0,0,0-517.61,255L2486.82,1668.53a407.75,407.75,0,0,0,255,517.61L4133.55,2659.3a407.75,407.75,0,0,0,517.61-255l473.16-1391.77A405.35,405.35,0,0,0,5145.05,851.84ZM4532.82,2364.11c-50.31,148-211,227.15-359,176.85L2782,2067.8c-148-50.31-227.16-211.05-176.85-359L3078.33,317c50.31-148,211.05-227.16,359-176.85L4829.13,613.31c148,50.31,227.15,211.05,176.85,359Z" style="fill:#fff"/><path d="M3815.66,756.64l-757.39,917.19,277.88,94.47L3490.53,1572l405.33,137.8-1,248.49,300.11,102L4154.3,871.77Zm-186.72,639.18,270.62-348.6-2.37,439.8Z" style="fill:#fff"/></svg>