<svg xmlns="http://www.w3.org/2000/svg" width="5146.13" height="2681.11" viewBox="0 0 5146.13 2681.11"><path d="M2189.84,251.34A407.72,407.72,0,0,0,1773.36,78.41l-1443,280.21A407.75,407.75,0,0,0,7.57,836.91l280.2,1443a407.79,407.79,0,0,0,478.3,322.75l1443-280.21a407.78,407.78,0,0,0,322.75-478.29L2251.65,401.15A405.44,405.44,0,0,0,2189.84,251.34ZM2409.15,1868c29.79,153.43-70.43,302-223.87,331.75L742.24,2480c-153.43,29.79-302-70.43-331.76-223.86L130.27,813.08c-29.79-153.43,70.44-302,223.87-331.76L1797.19,201.11c153.43-29.79,302,70.44,331.75,223.87Z" style="fill:#f7780c"/><polygon points="1597.09 663.3 1256.6 729.41 999 1291.1 903.25 798.02 598.9 857.13 820.48 1998.26 1124.84 1939.16 1022.08 1409.95 1483.8 1869.45 1862.04 1796.01 1279.72 1269.09 1597.09 663.3" style="fill:#f7780c"/><path d="M1826.77,301.1l-1443,280.21c-85.52,16.6-141.59,99.69-125,185.22L539,2209.57c16.61,85.53,99.69,141.6,185.22,125l1443-280.21c85.52-16.61,141.59-99.7,125-185.22L2012,426.08C1995.38,340.56,1912.3,284.49,1826.77,301.1Zm-373.2,1667.62L1169,1685.5l63.34,326.19-484.37,94L491.42,784.6l484.36-94.06,58.83,303,158.28-345.12L1766.79,537l-372.9,711.79,665.63,602.32Z" style="fill:#fff"/><path d="M5145.05,851.84A407.79,407.79,0,0,0,4869.36,495L3477.59,21.8a407.77,407.77,0,0,0-517.61,255L2486.82,1668.53a407.75,407.75,0,0,0,255,517.61L4133.55,2659.3a407.75,407.75,0,0,0,517.61-255l473.16-1391.77A405.35,405.35,0,0,0,5145.05,851.84ZM4532.82,2364.11c-50.31,148-211,227.15-359,176.85L2782,2067.8c-148-50.31-227.16-211.05-176.85-359L3078.33,317c50.31-148,211.05-227.16,359-176.85L4829.13,613.31c148,50.31,227.15,211.05,176.85,359Z" style="fill:#f7780c"/><path d="M3815.66,756.64l-757.39,917.19,277.88,94.47L3490.53,1572l405.33,137.8-1,248.49,300.11,102L4154.3,871.77Zm-186.72,639.18,270.62-348.6-2.37,439.8Z" style="fill:#f7780c"/><path d="M4788.89,731.66,3397.13,258.5c-82.49-28.05-172.41,16.25-200.45,98.73L2723.52,1749c-28,82.49,16.25,172.41,98.73,200.45L4214,2422.61c82.49,28,172.41-16.25,200.45-98.74L4887.63,932.1C4915.67,849.62,4871.38,759.7,4788.89,731.66ZM3793.7,2030.42l1-248.49-269-91.45-154.38,196.34-483.9-164.52L3782.2,638.71l470.55,160,48.06,1404.14Z" style="fill:#fff"/></svg>