<?xml version="1.0" encoding="UTF-8"?>
<svg id="Layer_1" xmlns="http://www.w3.org/2000/svg" version="1.1" viewBox="0 0 5146.1 2681.1">
  <!-- Generator: Adobe Illustrator 29.0.1, SVG Export Plug-In . SVG Version: 2.1.0 Build 192)  -->
  <defs>
    <style>
      .st0 {
        fill: #f7780c;
      }
    </style>
  </defs>
  <path class="st0" d="M5145,851.8c-11.8-163.6-120.4-304.1-275.7-356.8L3477.6,21.8c-213.2-72.6-444.9,41.4-517.5,254.5,0,.2,0,.3-.1.5l-466.2,1371.3-242.1-1247c-10.3-53.6-31.3-104.5-61.8-149.8-91.4-136.2-255.5-204.3-416.5-172.9L330.4,358.6C109.3,401.4-35.3,615.3,7.5,836.4c0,.2,0,.3.1.5l280.2,1443c42.8,221.1,256.8,365.7,477.9,322.8.1,0,.3,0,.4,0l1443-280.2c161.8-31.3,282.6-154.3,319-304.7,48,76.1,121.4,136.9,213.3,168.2.2,0,.3.1.5.2l1391.7,473.2c213.2,72.6,444.8-41.3,517.4-254.5,0-.2.1-.3.2-.5l473.2-1391.8c17.6-51.6,24.7-106.3,20.7-160.7ZM2185.3,2199.8l-1443,280.2c-153.4,29.8-302-70.4-331.8-223.9L130.3,813.1c-29.8-153.4,70.4-302,223.9-331.8L1797.2,201.1c153.4-29.8,302,70.4,331.8,223.9l280.2,1443c29.8,153.4-70.4,302-223.9,331.8ZM5006,972.3l-473.2,1391.8c-50.3,148-211,227.2-359,176.9l-1391.8-473.2c-148-50.3-227.2-211-176.9-359l473.2-1391.8c50.3-148,211-227.2,359-176.8l1391.8,473.2c148,50.3,227.2,211,176.9,359Z"/>
  <polygon class="st0" points="1597.1 663.3 1256.6 729.4 999 1291.1 903.2 798 598.9 857.1 820.5 1998.3 1124.8 1939.2 1022.1 1409.9 1483.8 1869.4 1862 1796 1279.7 1269.1 1597.1 663.3"/>
  <path class="st0" d="M1826.8,301.1L383.8,581.3c-85.5,16.6-141.6,99.7-125,185.2l280.2,1443c16.6,85.5,99.7,141.6,185.2,125l1443-280.2c85.5-16.6,141.6-99.7,125-185.2l-280.2-1443.1c-16.6-85.5-99.7-141.6-185.2-125ZM1453.6,1968.7l-284.6-283.2,63.3,326.2-484.4,94L491.4,784.6l484.4-94.1,58.8,303,158.3-345.1,573.9-111.4-372.9,711.8,665.6,602.3-605.9,117.6Z"/>
  <path class="st0" d="M3815.7,756.6l-757.4,917.2,277.9,94.5,154.4-196.3,405.3,137.8-1,248.5,300.1,102-40.7-1188.5-338.6-115.1ZM3628.9,1395.8l270.6-348.6-2.4,439.8-268.2-91.2Z"/>
  <path class="st0" d="M4788.9,731.7l-1391.8-473.2c-82.5-28.1-172.4,16.2-200.4,98.7l-473.2,1391.8c-28,82.5,16.2,172.4,98.7,200.4l1391.8,473.2c82.5,28,172.4-16.2,200.5-98.7l473.2-1391.8c28-82.5-16.2-172.4-98.7-200.4ZM3793.7,2030.4l1-248.5-269-91.4-154.4,196.3-483.9-164.5,894.8-1083.6,470.6,160,48.1,1404.1-507.1-172.4Z"/>
</svg>