<svg xmlns="http://www.w3.org/2000/svg" xmlns:xlink="http://www.w3.org/1999/xlink" viewBox="0 0 2633 1515"><defs><style>.cls-1,.cls-10,.cls-11,.cls-12,.cls-13,.cls-14,.cls-15,.cls-16,.cls-17,.cls-18,.cls-19,.cls-2,.cls-20,.cls-21,.cls-22,.cls-23,.cls-24,.cls-25,.cls-26,.cls-27,.cls-28,.cls-29,.cls-3,.cls-30,.cls-31,.cls-32,.cls-33,.cls-34,.cls-35,.cls-36,.cls-37,.cls-38,.cls-39,.cls-4,.cls-40,.cls-41,.cls-42,.cls-43,.cls-44,.cls-45,.cls-46,.cls-47,.cls-5,.cls-6,.cls-7,.cls-8,.cls-9{stroke:#000;stroke-miterlimit:10;}.cls-1{fill:url(#linear-gradient);}.cls-2{fill:url(#linear-gradient-2);}.cls-3{fill:url(#linear-gradient-3);}.cls-4{fill:url(#linear-gradient-4);}.cls-5{fill:url(#linear-gradient-5);}.cls-6{fill:url(#linear-gradient-6);}.cls-7{fill:url(#linear-gradient-7);}.cls-8{fill:url(#linear-gradient-8);}.cls-9{fill:url(#linear-gradient-9);}.cls-10{fill:url(#linear-gradient-10);}.cls-11{fill:url(#linear-gradient-11);}.cls-12{fill:url(#linear-gradient-12);}.cls-13{fill:url(#linear-gradient-13);}.cls-14{fill:url(#linear-gradient-14);}.cls-15{fill:url(#linear-gradient-15);}.cls-16{fill:url(#linear-gradient-16);}.cls-17{fill:url(#linear-gradient-17);}.cls-18{fill:url(#linear-gradient-18);}.cls-19{fill:url(#linear-gradient-19);}.cls-20{fill:url(#linear-gradient-20);}.cls-21{fill:url(#linear-gradient-21);}.cls-22{fill:url(#linear-gradient-22);}.cls-23{fill:url(#linear-gradient-23);}.cls-24{fill:url(#linear-gradient-24);}.cls-25{fill:url(#linear-gradient-25);}.cls-26{fill:url(#linear-gradient-26);}.cls-27{fill:url(#linear-gradient-27);}.cls-28{fill:url(#linear-gradient-28);}.cls-29{fill:url(#linear-gradient-29);}.cls-30{fill:url(#linear-gradient-30);}.cls-31{fill:url(#linear-gradient-31);}.cls-32{fill:url(#linear-gradient-32);}.cls-33{fill:url(#linear-gradient-33);}.cls-34{fill:url(#linear-gradient-34);}.cls-35{fill:url(#linear-gradient-35);}.cls-36{fill:url(#linear-gradient-36);}.cls-37{fill:url(#linear-gradient-37);}.cls-38{fill:url(#linear-gradient-38);}.cls-39{fill:url(#linear-gradient-39);}.cls-40{fill:url(#linear-gradient-40);}.cls-41{fill:url(#linear-gradient-41);}.cls-42{fill:url(#linear-gradient-42);}.cls-43{fill:url(#linear-gradient-43);}.cls-44{fill:url(#linear-gradient-44);}.cls-45{fill:url(#linear-gradient-45);}.cls-46{fill:url(#linear-gradient-46);}.cls-47{fill:url(#linear-gradient-47);}</style><linearGradient id="linear-gradient" x1="283.75" y1="758.46" x2="-7.05" y2="757.37" gradientUnits="userSpaceOnUse"><stop offset="0.52" stop-color="#010101"/><stop offset="0.98" stop-color="#40346b"/></linearGradient><linearGradient id="linear-gradient-2" x1="339.75" y1="758.46" x2="48.95" y2="757.37" xlink:href="#linear-gradient"/><linearGradient id="linear-gradient-3" x1="395.75" y1="758.46" x2="104.95" y2="757.37" xlink:href="#linear-gradient"/><linearGradient id="linear-gradient-4" x1="451.75" y1="758.46" x2="160.95" y2="757.37" xlink:href="#linear-gradient"/><linearGradient id="linear-gradient-5" x1="507.75" y1="758.46" x2="216.95" y2="757.37" xlink:href="#linear-gradient"/><linearGradient id="linear-gradient-6" x1="563.75" y1="758.46" x2="272.95" y2="757.37" xlink:href="#linear-gradient"/><linearGradient id="linear-gradient-7" x1="619.75" y1="758.46" x2="328.95" y2="757.37" xlink:href="#linear-gradient"/><linearGradient id="linear-gradient-8" x1="675.75" y1="758.46" x2="384.95" y2="757.37" xlink:href="#linear-gradient"/><linearGradient id="linear-gradient-9" x1="731.75" y1="758.46" x2="440.95" y2="757.37" xlink:href="#linear-gradient"/><linearGradient id="linear-gradient-10" x1="787.75" y1="758.46" x2="496.95" y2="757.37" xlink:href="#linear-gradient"/><linearGradient id="linear-gradient-11" x1="843.75" y1="758.46" x2="552.95" y2="757.37" xlink:href="#linear-gradient"/><linearGradient id="linear-gradient-12" x1="899.75" y1="758.46" x2="608.95" y2="757.37" xlink:href="#linear-gradient"/><linearGradient id="linear-gradient-13" x1="955.75" y1="758.46" x2="664.95" y2="757.37" xlink:href="#linear-gradient"/><linearGradient id="linear-gradient-14" x1="1011.75" y1="758.46" x2="720.95" y2="757.37" xlink:href="#linear-gradient"/><linearGradient id="linear-gradient-15" x1="1067.75" y1="758.46" x2="776.95" y2="757.37" xlink:href="#linear-gradient"/><linearGradient id="linear-gradient-16" x1="1123.75" y1="758.46" x2="832.95" y2="757.37" xlink:href="#linear-gradient"/><linearGradient id="linear-gradient-17" x1="1179.75" y1="758.46" x2="888.95" y2="757.37" xlink:href="#linear-gradient"/><linearGradient id="linear-gradient-18" x1="1235.75" y1="758.46" x2="944.95" y2="757.37" xlink:href="#linear-gradient"/><linearGradient id="linear-gradient-19" x1="1291.75" y1="758.46" x2="1000.95" y2="757.37" xlink:href="#linear-gradient"/><linearGradient id="linear-gradient-20" x1="1347.75" y1="758.46" x2="1056.95" y2="757.37" xlink:href="#linear-gradient"/><linearGradient id="linear-gradient-21" x1="1403.75" y1="758.46" x2="1112.95" y2="757.37" xlink:href="#linear-gradient"/><linearGradient id="linear-gradient-22" x1="1459.75" y1="758.46" x2="1168.95" y2="757.37" xlink:href="#linear-gradient"/><linearGradient id="linear-gradient-23" x1="1515.75" y1="758.46" x2="1224.95" y2="757.37" xlink:href="#linear-gradient"/><linearGradient id="linear-gradient-24" x1="1571.75" y1="758.46" x2="1280.95" y2="757.37" xlink:href="#linear-gradient"/><linearGradient id="linear-gradient-25" x1="1627.75" y1="758.46" x2="1336.95" y2="757.37" xlink:href="#linear-gradient"/><linearGradient id="linear-gradient-26" x1="1683.75" y1="758.46" x2="1392.95" y2="757.37" xlink:href="#linear-gradient"/><linearGradient id="linear-gradient-27" x1="1739.75" y1="758.46" x2="1448.95" y2="757.37" xlink:href="#linear-gradient"/><linearGradient id="linear-gradient-28" x1="1795.75" y1="758.46" x2="1504.95" y2="757.37" xlink:href="#linear-gradient"/><linearGradient id="linear-gradient-29" x1="1851.75" y1="758.46" x2="1560.95" y2="757.37" xlink:href="#linear-gradient"/><linearGradient id="linear-gradient-30" x1="1907.75" y1="758.46" x2="1616.95" y2="757.37" xlink:href="#linear-gradient"/><linearGradient id="linear-gradient-31" x1="1963.75" y1="758.46" x2="1672.95" y2="757.37" xlink:href="#linear-gradient"/><linearGradient id="linear-gradient-32" x1="2019.75" y1="758.46" x2="1728.95" y2="757.37" xlink:href="#linear-gradient"/><linearGradient id="linear-gradient-33" x1="2075.75" y1="758.46" x2="1784.95" y2="757.37" xlink:href="#linear-gradient"/><linearGradient id="linear-gradient-34" x1="2131.75" y1="758.46" x2="1840.95" y2="757.37" xlink:href="#linear-gradient"/><linearGradient id="linear-gradient-35" x1="2187.75" y1="758.46" x2="1896.95" y2="757.37" xlink:href="#linear-gradient"/><linearGradient id="linear-gradient-36" x1="2243.75" y1="758.46" x2="1952.95" y2="757.37" xlink:href="#linear-gradient"/><linearGradient id="linear-gradient-37" x1="2299.75" y1="758.46" x2="2008.95" y2="757.37" xlink:href="#linear-gradient"/><linearGradient id="linear-gradient-38" x1="2355.75" y1="758.46" x2="2064.95" y2="757.37" xlink:href="#linear-gradient"/><linearGradient id="linear-gradient-39" x1="2411.75" y1="758.46" x2="2120.95" y2="757.37" xlink:href="#linear-gradient"/><linearGradient id="linear-gradient-40" x1="2467.75" y1="758.46" x2="2176.95" y2="757.37" xlink:href="#linear-gradient"/><linearGradient id="linear-gradient-41" x1="2523.75" y1="758.46" x2="2232.95" y2="757.37" xlink:href="#linear-gradient"/><linearGradient id="linear-gradient-42" x1="2579.75" y1="758.46" x2="2288.95" y2="757.37" xlink:href="#linear-gradient"/><linearGradient id="linear-gradient-43" x1="2635.75" y1="758.46" x2="2344.95" y2="757.37" xlink:href="#linear-gradient"/><linearGradient id="linear-gradient-44" x1="2691.75" y1="758.46" x2="2400.95" y2="757.37" xlink:href="#linear-gradient"/><linearGradient id="linear-gradient-45" x1="2747.75" y1="758.46" x2="2456.95" y2="757.37" xlink:href="#linear-gradient"/><linearGradient id="linear-gradient-46" x1="2803.75" y1="758.46" x2="2512.95" y2="757.37" xlink:href="#linear-gradient"/><linearGradient id="linear-gradient-47" x1="2859.75" y1="758.46" x2="2568.95" y2="757.37" xlink:href="#linear-gradient"/></defs><g id="Layer_2" data-name="Layer 2"><g id="Layer_1-2" data-name="Layer 1"><rect class="cls-1" x="0.5" y="0.5" width="56" height="1514"/><rect class="cls-2" x="56.5" y="0.5" width="56" height="1514"/><rect class="cls-3" x="112.5" y="0.5" width="56" height="1514"/><rect class="cls-4" x="168.5" y="0.5" width="56" height="1514"/><rect class="cls-5" x="224.5" y="0.5" width="56" height="1514"/><rect class="cls-6" x="280.5" y="0.5" width="56" height="1514"/><rect class="cls-7" x="336.5" y="0.5" width="56" height="1514"/><rect class="cls-8" x="392.5" y="0.5" width="56" height="1514"/><rect class="cls-9" x="448.5" y="0.5" width="56" height="1514"/><rect class="cls-10" x="504.5" y="0.5" width="56" height="1514"/><rect class="cls-11" x="560.5" y="0.5" width="56" height="1514"/><rect class="cls-12" x="616.5" y="0.5" width="56" height="1514"/><rect class="cls-13" x="672.5" y="0.5" width="56" height="1514"/><rect class="cls-14" x="728.5" y="0.5" width="56" height="1514"/><rect class="cls-15" x="784.5" y="0.5" width="56" height="1514"/><rect class="cls-16" x="840.5" y="0.5" width="56" height="1514"/><rect class="cls-17" x="896.5" y="0.5" width="56" height="1514"/><rect class="cls-18" x="952.5" y="0.5" width="56" height="1514"/><rect class="cls-19" x="1008.5" y="0.5" width="56" height="1514"/><rect class="cls-20" x="1064.5" y="0.5" width="56" height="1514"/><rect class="cls-21" x="1120.5" y="0.5" width="56" height="1514"/><rect class="cls-22" x="1176.5" y="0.5" width="56" height="1514"/><rect class="cls-23" x="1232.5" y="0.5" width="56" height="1514"/><rect class="cls-24" x="1288.5" y="0.5" width="56" height="1514"/><rect class="cls-25" x="1344.5" y="0.5" width="56" height="1514"/><rect class="cls-26" x="1400.5" y="0.5" width="56" height="1514"/><rect class="cls-27" x="1456.5" y="0.5" width="56" height="1514"/><rect class="cls-28" x="1512.5" y="0.5" width="56" height="1514"/><rect class="cls-29" x="1568.5" y="0.5" width="56" height="1514"/><rect class="cls-30" x="1624.5" y="0.5" width="56" height="1514"/><rect class="cls-31" x="1680.5" y="0.5" width="56" height="1514"/><rect class="cls-32" x="1736.5" y="0.5" width="56" height="1514"/><rect class="cls-33" x="1792.5" y="0.5" width="56" height="1514"/><rect class="cls-34" x="1848.5" y="0.5" width="56" height="1514"/><rect class="cls-35" x="1904.5" y="0.5" width="56" height="1514"/><rect class="cls-36" x="1960.5" y="0.5" width="56" height="1514"/><rect class="cls-37" x="2016.5" y="0.5" width="56" height="1514"/><rect class="cls-38" x="2072.5" y="0.5" width="56" height="1514"/><rect class="cls-39" x="2128.5" y="0.5" width="56" height="1514"/><rect class="cls-40" x="2184.5" y="0.5" width="56" height="1514"/><rect class="cls-41" x="2240.5" y="0.5" width="56" height="1514"/><rect class="cls-42" x="2296.5" y="0.5" width="56" height="1514"/><rect class="cls-43" x="2352.5" y="0.5" width="56" height="1514"/><rect class="cls-44" x="2408.5" y="0.5" width="56" height="1514"/><rect class="cls-45" x="2464.5" y="0.5" width="56" height="1514"/><rect class="cls-46" x="2520.5" y="0.5" width="56" height="1514"/><rect class="cls-47" x="2576.5" y="0.5" width="56" height="1514"/></g></g></svg>